<svg xmlns="http://www.w3.org/2000/svg" width="120" height="120" class="flow-logo" viewBox="-29 0 300 300"><title>Flow logo</title><g class="flow-logo-mark"><path fill="#1F55FF" d="M224.74 156.64l-84.11-84.1h84.11z" opacity=".7"/><path fill="#1F55FF" d="M81.72 0l84.11 84.1H81.72z" opacity=".7"/><path fill="#3968FF" d="M84.45 131.79L.34 47.67h101.13v84.11zm73.89 84.1L242.45 300h-84.11z" opacity=".9"/><path fill="#90AAFF" d="M101.47 215.9l-84.1-84.12h84.11v84.11zm90.58-42.57L125 106.24h67.08zm7.84 118.84l-76.28-76.27h76.28z" opacity=".7"/><path fill="#7CBCFC" d="M101.47 114.63l-84-84h84z" opacity=".9"/><path fill="#4099F9" d="M123.95 215.89L208.06 300h-84.11v-84.11z" opacity=".8"/><path fill="#4099F9" d="M209.08 249.47l-84-84h84z" opacity=".7"/><path fill="#3968FF" d="M125 106.24l83.09 83.09H125v-83.09z" opacity=".9"/><path fill="#376FFF" d="M101.47 299.67L0 198.18h101.47v101.48z" opacity=".7"/></g></svg>