<svg xmlns="http://www.w3.org/2000/svg" width="2019" height="2500" preserveAspectRatio="xMinYMin meet" viewBox="0 0 256 317"><defs><linearGradient id="a" x1="16.107%" x2="72.709%" y1="58.187%" y2="72.89%"><stop offset="0%" stop-color="#FFD441"/><stop offset="100%" stop-color="#FFB047"/></linearGradient><linearGradient id="b" x1="70.213%" y1="65.797%" y2="0%"><stop offset="0%" stop-color="#FFD754"/><stop offset="100%" stop-color="#FFB532"/></linearGradient><linearGradient id="c" x1="22.178%" x2="22.178%" y1="66.138%" y2="9.316%"><stop offset="0%" stop-color="#FFD642"/><stop offset="0%" stop-color="#FFD441"/><stop offset="100%" stop-color="#FFB532"/></linearGradient><linearGradient id="d" x1="88.953%" x2="12.579%" y1="24.298%" y2="6.966%"><stop offset="0%" stop-color="#FFD441"/><stop offset="100%" stop-color="#FFA829"/></linearGradient></defs><path fill="#FFDF51" fill-opacity=".7" d="M211.69 309.979V228.12h-81.201l81.2 81.858"/><path fill="#FF8900" fill-opacity=".7" d="M220.801 263.566v-88.533H132.98l87.822 88.533"/><path fill="url(#a)" fill-opacity=".7" d="M167.467 228.118v88.534h87.822l-87.822-88.534"/><path fill="#FFDF4F" fill-opacity=".7" d="M202.444 180.962v-70.027h-69.467l69.467 70.027"/><path fill="url(#b)" fill-opacity=".8" d="M235.424 164.267V75.733h-87.822l87.822 88.534"/><path fill="url(#c)" fill-opacity=".8" d="M85.735 0v88.533h87.822L85.735 0"/><path fill="url(#d)" fill-opacity=".88" d="M106.334 138.667V50.133H.135l87.443 88.552 18.756-.018"/><path fill="#FFB700" fill-opacity=".7" d="M106.334 316.175V209.067H.135l106.199 107.108"/><path fill="#FFB700" fill-opacity=".5" d="M106.357 227.467v-88.534H18.535l87.822 88.534"/><path fill="#FFCD25" fill-opacity=".7" d="M132.976 110.933v88.534h87.823l-87.823-88.534"/><path fill="#FF8900" fill-opacity=".7" d="M106.135 120.9V32.365H18.313l87.822 88.533M130.489 228.118v88.534h87.822l-87.822-88.534"/></svg>